<svg id="SvgjsSvg1001" width="288" height="288" xmlns="http://www.w3.org/2000/svg" version="1.1" xmlns:xlink="http://www.w3.org/1999/xlink" xmlns:svgjs="http://svgjs.com/svgjs"><defs id="SvgjsDefs1002"></defs><g id="SvgjsG1008"><svg xmlns="http://www.w3.org/2000/svg" viewBox="0 0 13 15" width="288" height="288"><path stroke="#7b9fc3" stroke-linecap="round" stroke-linejoin="round" d="M4.50005 13.8333L4.50139 11.1653C4.50139 10.5446 4.50139 10.2346 4.60339 9.98996C4.6704 9.82808 4.76865 9.68099 4.89254 9.55711C5.01642 9.43322 5.16351 9.33497 5.32539 9.26796C5.57005 9.16663 5.88005 9.16663 6.50005 9.16663C7.12005 9.16663 7.43072 9.16663 7.67605 9.26796C7.83793 9.33497 7.98502 9.43322 8.1089 9.55711C8.23279 9.68099 8.33105 9.82808 8.39805 9.98996C8.50005 10.2353 8.50005 10.5453 8.50005 11.1666V13.8333" fill="none" class="svgStroke colorStrokeffffff-0 selectable"></path><path stroke="#7b9fc3" stroke-linecap="round" stroke-linejoin="round" d="M3.22539 2.34133L2.55872 2.862C1.54805 3.65133 1.04205 4.046 0.771387 4.602C0.500053 5.15867 0.500053 5.80133 0.500053 7.08667V8.48133C0.500053 11.004 0.500053 12.2653 1.28139 13.0493C2.06272 13.8333 3.31939 13.8333 5.83339 13.8333H7.16672C9.68072 13.8333 10.9381 13.8333 11.7187 13.0493C12.4994 12.2653 12.5001 11.004 12.5001 8.48067V7.08733C12.5001 5.80133 12.5001 5.15867 12.2287 4.602C11.9574 4.046 11.4521 3.65133 10.4414 2.862L9.77472 2.342C8.20139 1.11333 7.41472 0.5 6.50005 0.5C5.58539 0.5 4.79872 1.11333 3.22539 2.34133Z" fill="none" class="svgStroke colorStrokeffffff-1 selectable"></path></svg></g></svg>